<svg width="20" height="21" viewBox="0 0 20 21" fill="none" xmlns="http://www.w3.org/2000/svg">
<path fill-rule="evenodd" clip-rule="evenodd" d="M19.302 11.1755C19.688 11.1755 20 11.4875 20 11.8725V11.9255C20 13.6355 20 14.9895 19.858 16.0485C19.711 17.1385 19.402 18.0225 18.706 18.7185C18.01 19.4145 17.126 19.7235 16.036 19.8705C14.976 20.0125 13.622 20.0125 11.913 20.0125H11.86C11.6796 20.0056 11.5088 19.9292 11.3836 19.7991C11.2584 19.669 11.1884 19.4955 11.1884 19.315C11.1884 19.1344 11.2584 18.9609 11.3836 18.8308C11.5088 18.7008 11.6796 18.6243 11.86 18.6175C13.634 18.6175 14.894 18.6155 15.85 18.4875C16.786 18.3615 17.326 18.1255 17.72 17.7315C18.113 17.3385 18.349 16.7985 18.475 15.8625C18.603 14.9065 18.605 13.6465 18.605 11.8725C18.605 11.4875 18.917 11.1755 19.302 11.1755ZM0.698 11.1755C1.083 11.1755 1.395 11.4875 1.395 11.8725C1.395 13.6465 1.397 14.9065 1.525 15.8625C1.651 16.7985 1.887 17.3385 2.281 17.7325C2.675 18.1255 3.214 18.3615 4.15 18.4875C5.106 18.6155 6.366 18.6175 8.14 18.6175C8.23382 18.6139 8.32739 18.6293 8.41512 18.6628C8.50284 18.6962 8.58291 18.747 8.65055 18.8121C8.71818 18.8773 8.77198 18.9554 8.80873 19.0418C8.84547 19.1282 8.86442 19.2211 8.86442 19.315C8.86442 19.4088 8.84547 19.5018 8.80873 19.5882C8.77198 19.6746 8.71818 19.7527 8.65055 19.8178C8.58291 19.8829 8.50284 19.9337 8.41512 19.9672C8.32739 20.0006 8.23382 20.016 8.14 20.0125H8.087C6.377 20.0125 5.023 20.0125 3.964 19.8705C2.874 19.7235 1.99 19.4145 1.294 18.7185C0.598 18.0225 0.289 17.1385 0.142 16.0485C-4.47035e-08 14.9885 0 13.6345 0 11.9255V11.8725C0 11.4875 0.312 11.1755 0.698 11.1755ZM8.087 0.0124629H8.14C8.23382 0.0089099 8.32739 0.0243206 8.41512 0.0577727C8.50284 0.0912248 8.58291 0.142031 8.65055 0.20715C8.71818 0.272269 8.77198 0.350364 8.80873 0.43676C8.84547 0.523155 8.86442 0.616077 8.86442 0.709963C8.86442 0.803849 8.84547 0.896771 8.80873 0.983167C8.77198 1.06956 8.71818 1.14766 8.65055 1.21278C8.58291 1.2779 8.50284 1.3287 8.41512 1.36215C8.32739 1.39561 8.23382 1.41102 8.14 1.40746C6.366 1.40746 5.106 1.40946 4.15 1.53746C3.214 1.66346 2.675 1.89946 2.28 2.29346C1.887 2.68746 1.651 3.22646 1.525 4.16246C1.397 5.11846 1.395 6.37846 1.395 8.15246C1.38817 8.33288 1.31169 8.50363 1.18163 8.62886C1.05157 8.75409 0.878048 8.82405 0.6975 8.82405C0.516952 8.82405 0.343428 8.75409 0.213369 8.62886C0.083309 8.50363 0.0068326 8.33288 0 8.15246V8.09946C0 6.38946 -4.47035e-08 5.03546 0.142 3.97646C0.289 2.88646 0.598 2.00246 1.294 1.30646C1.99 0.610463 2.874 0.301463 3.964 0.154463C5.024 0.0124629 6.378 0.0124629 8.087 0.0124629ZM15.85 1.53746C14.894 1.40946 13.634 1.40746 11.86 1.40746C11.6796 1.40063 11.5088 1.32415 11.3836 1.19409C11.2584 1.06403 11.1884 0.89051 11.1884 0.709963C11.1884 0.529415 11.2584 0.355891 11.3836 0.225832C11.5088 0.0957719 11.6796 0.0192955 11.86 0.0124629H11.913C13.623 0.0124629 14.977 0.0124629 16.036 0.154463C17.126 0.301463 18.01 0.610463 18.706 1.30646C19.402 2.00246 19.711 2.88646 19.858 3.97646C20 5.03646 20 6.39046 20 8.09946V8.15246C20.0036 8.24628 19.9881 8.33985 19.9547 8.42758C19.9212 8.5153 19.8704 8.59538 19.8053 8.66301C19.7402 8.73064 19.6621 8.78444 19.5757 8.82119C19.4893 8.85794 19.3964 8.87688 19.3025 8.87688C19.2086 8.87688 19.1157 8.85794 19.0293 8.82119C18.9429 8.78444 18.8648 8.73064 18.7997 8.66301C18.7346 8.59538 18.6838 8.5153 18.6503 8.42758C18.6169 8.33985 18.6014 8.24628 18.605 8.15246C18.605 6.37846 18.603 5.11846 18.475 4.16246C18.349 3.22646 18.113 2.68746 17.719 2.29246C17.326 1.89946 16.786 1.66346 15.85 1.53746Z" fill="#409C59"/>
<path fill-rule="evenodd" clip-rule="evenodd" d="M3.37611 3.38856C2.55811 4.20556 2.55811 5.52056 2.55811 8.15256V11.8726C2.55811 14.5046 2.55811 15.8196 3.37611 16.6376C4.19311 17.4546 5.50811 17.4546 8.14011 17.4546H11.8601C14.4921 17.4546 15.8071 17.4546 16.6251 16.6376C17.4421 15.8196 17.4421 14.5046 17.4421 11.8736V8.15156C17.4421 5.52156 17.4421 4.20556 16.6251 3.38856C15.8071 2.57056 14.4921 2.57056 11.8611 2.57056H8.13911C5.50911 2.57056 4.19311 2.57056 3.37611 3.38856ZM7.06811 12.5566C7.11572 12.492 7.1756 12.4375 7.24432 12.3961C7.31303 12.3547 7.38923 12.3273 7.46856 12.3154C7.54788 12.3035 7.62877 12.3074 7.7066 12.3268C7.78442 12.3462 7.85766 12.3808 7.92211 12.4286C8.51411 12.8686 9.23011 13.1226 10.0001 13.1226C10.7701 13.1226 11.4861 12.8686 12.0781 12.4286C12.2082 12.3322 12.3713 12.2914 12.5314 12.3152C12.6916 12.339 12.8357 12.4255 12.9321 12.5556C13.0285 12.6856 13.0693 12.8487 13.0455 13.0089C13.0217 13.169 12.9352 13.3132 12.8051 13.4096C11.9949 14.0145 11.0112 14.3421 10.0001 14.3436C8.98898 14.3421 8.0053 14.0145 7.19511 13.4096C7.13064 13.3619 7.07621 13.3019 7.03492 13.2332C6.99364 13.1644 6.96632 13.0882 6.95453 13.0089C6.94273 12.9296 6.94669 12.8487 6.96618 12.7709C6.98567 12.6931 7.0203 12.6209 7.06811 12.5566ZM13.2561 8.44156C13.2561 9.11656 12.8911 9.66256 12.4421 9.66256C11.9921 9.66256 11.6281 9.11656 11.6281 8.44256C11.6281 7.76756 11.9921 7.22056 12.4421 7.22056C12.8921 7.22056 13.2561 7.76756 13.2561 8.44156ZM7.5581 9.66256C8.0081 9.66256 8.37211 9.11656 8.37211 8.44256C8.37211 7.76756 8.0081 7.22056 7.5581 7.22056C7.10811 7.22056 6.74411 7.76756 6.74411 8.44156C6.74411 9.11656 7.10911 9.66256 7.5581 9.66256Z" fill="#409C59"/>
</svg>
