<svg width="18" height="18" viewBox="0 0 18 18" fill="none" xmlns="http://www.w3.org/2000/svg">
<path d="M16.23 12.2725L13.69 11.9825C13.3914 11.9474 13.0886 11.9805 12.8046 12.0792C12.5206 12.1779 12.2626 12.3397 12.05 12.5525L10.21 14.3925C7.37144 12.9484 5.0641 10.6411 3.62004 7.80246L5.47004 5.95246C5.90004 5.52246 6.11004 4.92246 6.04004 4.31246L5.75004 1.79246C5.69356 1.30455 5.45951 0.854486 5.0925 0.528057C4.7255 0.201627 4.25121 0.0216609 3.76004 0.0224636H2.03004C0.900041 0.0224636 -0.0399593 0.962463 0.0300407 2.09246C0.560041 10.6325 7.39004 17.4525 15.92 17.9825C17.05 18.0525 17.99 17.1125 17.99 15.9825V14.2525C18 13.2425 17.24 12.3925 16.23 12.2725Z" fill="#409C59"/>
</svg>
